<svg width="58" height="58" viewBox="0 0 58 58" fill="none" xmlns="http://www.w3.org/2000/svg">
<path d="M5.4375 47.125V34.4375C5.44318 32.5164 6.20884 30.6757 7.56725 29.3172C8.92566 27.9588 10.7664 27.1932 12.6875 27.1875H45.3125C47.2336 27.1932 49.0743 27.9588 50.4328 29.3172C51.7912 30.6757 52.5568 32.5164 52.5625 34.4375V47.125M43.5 27.1875H10.875V15.4062C10.8786 14.2056 11.3571 13.0551 12.2061 12.2061C13.0551 11.3571 14.2056 10.8786 15.4062 10.875H42.5938C43.7944 10.8786 44.9449 11.3571 45.7939 12.2061C46.6429 13.0551 47.1214 14.2056 47.125 15.4062V27.1875H43.5Z" stroke="#FAF9F7" stroke-linecap="round" stroke-linejoin="round"/>
<path d="M5.4375 47.125V46.2188C5.43959 45.4983 5.7267 44.808 6.23611 44.2986C6.74553 43.7892 7.43584 43.5021 8.15625 43.5H49.8438C50.5642 43.5021 51.2545 43.7892 51.7639 44.2986C52.2733 44.808 52.5604 45.4983 52.5625 46.2188V47.125M12.6875 27.1875V25.375C12.6902 24.4144 13.073 23.4939 13.7522 22.8147C14.4314 22.1355 15.3519 21.7527 16.3125 21.75H25.375C26.3356 21.7527 27.2561 22.1355 27.9353 22.8147C28.6145 23.4939 28.9973 24.4144 29 25.375M29 25.375V27.1875M29 25.375C29.0027 24.4144 29.3855 23.4939 30.0647 22.8147C30.7439 22.1355 31.6644 21.7527 32.625 21.75H41.6875C42.6481 21.7527 43.5686 22.1355 44.2478 22.8147C44.927 23.4939 45.3098 24.4144 45.3125 25.375V27.1875" stroke="#FAF9F7" stroke-linecap="round" stroke-linejoin="round"/>
</svg>
