<svg width="36" height="59" viewBox="0 0 36 59" fill="none" xmlns="http://www.w3.org/2000/svg">
<path d="M6.66683 37.8333L1.00016 57.6667M29.3335 37.8333L35.0002 57.6667M18.0002 26.5C13.6878 26.5 9.13183 27.3302 5.55616 28.438C2.86449 29.271 0.699829 33.079 1.03416 36.1702C1.15883 37.3148 2.04566 37.8333 2.97783 37.8333H33.0225C33.9575 37.8333 34.8415 37.3148 34.9662 36.1702C35.3005 33.079 33.1358 29.271 30.4442 28.4352C26.8713 27.333 22.3125 26.5 18.0002 26.5Z" stroke="#FAF9F7" stroke-linecap="round" stroke-linejoin="round"/>
<path d="M3.83203 29.3333L5.64536 11.2057C6.12986 6.355 6.37353 3.92967 7.99137 2.46483C9.6092 1 12.0487 1 16.922 1H19.0754C23.9487 1 26.3854 1 28.006 2.46483C29.6239 3.92967 29.8675 6.355 30.352 11.2057L32.1654 29.3333" stroke="#FAF9F7" stroke-linecap="round" stroke-linejoin="round"/>
</svg>
