<svg width="60" height="32" viewBox="0 0 60 32" fill="none" xmlns="http://www.w3.org/2000/svg">
<mask id="mask0_1_2205" style="mask-type:luminance" maskUnits="userSpaceOnUse" x="-1" y="-1" width="61" height="33">
<path d="M59.1163 0H0V31H59.1163V0Z" fill="white" stroke="white"/>
</mask>
<g mask="url(#mask0_1_2205)">
<path d="M56.6813 17.3023H1.70773C1.16196 17.3023 0.71875 17.7511 0.71875 18.3059V25.6708C0.71875 26.2247 1.16098 26.6744 1.70773 26.6744H56.6823C57.229 26.6744 57.6722 26.2247 57.6722 25.6698V18.3068C57.6722 17.752 57.229 17.3023 56.6823 17.3023H56.6813Z" stroke="#FAF9F7" stroke-miterlimit="10"/>
<path d="M5.03248 7.22205C7.33211 7.22205 9.19781 9.09827 9.19781 11.4086V17.2148C9.19781 17.3261 9.10798 17.4153 8.99826 17.4153H1.06673C0.955984 17.4153 0.867188 17.3251 0.867188 17.2148V11.4086C0.867188 9.09726 2.73384 7.22205 5.03248 7.22205Z" stroke="#FAF9F7" stroke-miterlimit="10"/>
<path d="M53.2668 7.22205C55.5665 7.22205 57.4321 9.09827 57.4321 11.4086V17.2148C57.4321 17.3261 57.3424 17.4153 57.2326 17.4153H49.301C49.1903 17.4153 49.1016 17.3251 49.1016 17.2148V11.4086C49.1016 9.09726 50.9682 7.22205 53.2668 7.22205Z" stroke="#FAF9F7" stroke-miterlimit="10"/>
<path d="M17.3319 10.81C18.0438 10.81 18.6209 10.2299 18.6209 9.51439C18.6209 8.79887 18.0438 8.21881 17.3319 8.21881C16.62 8.21881 16.043 8.79887 16.043 9.51439C16.043 10.2299 16.62 10.81 17.3319 10.81Z" stroke="#FAF9F7" stroke-miterlimit="10"/>
<path d="M29.332 10.81C30.0438 10.81 30.6209 10.2299 30.6209 9.51439C30.6209 8.79887 30.0438 8.21881 29.332 8.21881C28.6201 8.21881 28.043 8.79887 28.043 9.51439C28.043 10.2299 28.6201 10.81 29.332 10.81Z" stroke="#FAF9F7" stroke-miterlimit="10"/>
<path d="M41.4179 10.81C42.1298 10.81 42.7069 10.2299 42.7069 9.51439C42.7069 8.79887 42.1298 8.21881 41.4179 8.21881C40.706 8.21881 40.1289 8.79887 40.1289 9.51439C40.1289 10.2299 40.706 10.81 41.4179 10.81Z" stroke="#FAF9F7" stroke-miterlimit="10"/>
<path d="M5.42661 30.7994H4.1875V27.3599H6.96403L5.42661 30.7994Z" stroke="#FAF9F7" stroke-miterlimit="10"/>
<path d="M53.4164 30.7994H54.6554V27.3599H51.8789L53.4164 30.7994Z" stroke="#FAF9F7" stroke-miterlimit="10"/>
<path d="M8.70861 1.44183H49.6787C51.7018 1.44183 53.3453 2.96062 53.3453 4.8323V17.3023H5.04297V4.8323C5.04297 2.96155 6.68451 1.44183 8.70861 1.44183Z" stroke="#FAF9F7" stroke-miterlimit="10"/>
</g>
</svg>
