<svg width="59" height="50" viewBox="0 0 59 50" fill="none" xmlns="http://www.w3.org/2000/svg">
<path d="M29.3333 18C44.9814 18 57.6667 14.1944 57.6667 9.5C57.6667 4.80558 44.9814 1 29.3333 1C13.6853 1 1 4.80558 1 9.5C1 14.1944 13.6853 18 29.3333 18Z" stroke="#FAF9F7" stroke-linecap="round" stroke-linejoin="round"/>
<path d="M29.332 40.6667C33.1003 40.6667 35.2055 42.8143 36.1858 44.6787C36.4134 45.1223 36.4731 45.6333 36.3539 46.1174C36.2347 46.6016 35.9446 47.0264 35.537 47.3137C33.7001 48.5371 31.5389 49.1825 29.332 49.1667C26.986 49.1667 24.827 48.4725 23.127 47.3108C22.7193 47.0236 22.4292 46.5988 22.31 46.1146C22.1908 45.6304 22.2505 45.1195 22.4781 44.6758C23.4585 42.82 25.5636 40.6667 29.332 40.6667ZM29.332 40.6667V18" stroke="#FAF9F7" stroke-linecap="round" stroke-linejoin="round"/>
</svg>
